 http://imageshack.us/m/51/6613/grownupsp.jpg

Country.......: USA
Genre.........: Comedy
Date release..: 24.06.2010 [World]
Director......: Dennis Dugan
Writers.......: Adam Sandler, Fred Wolf
Duration......: 102 min.
More..........: http://www.imdb.com/title/tt1375670
Trailer.......: http://www.imdb.com/video/imdb/vi3618113305
Trailer.......:

Pilot :
After their high school basketball coach passes away, five good friends and former teammates reunite for a Fourth of July holiday weekend. 

Cats :
Adam Sandler   	 ...  	Lenny Feder
Kevin James 	... 	Eric Lamonsoff
Chris Rock 	... 	Kurt McKenzie
David Spade 	... 	Marcus Higgins
Rob Schneider 	... 	Rob Hilliard
Salma Hayek 	... 	Roxanne Chase Feder (as Salma Hayek Pinault)
Maria Bello 	... 	Sally Lamonsoff
Maya Rudolph 	... 	Deanne McKenzie
Joyce Van Patten 	... 	Gloria
Ebony Jo Ann 	... 	Mama Ronzoni
Di Quon 	... 	Rita
Steve Buscemi 	... 	Wiley
Colin Quinn 	... 	Dickie Bailey
Tim Meadows 	... 	Malcolm
Madison Riley 	... 	Jasmine Hilliard 

Data Technical :
!!! SAMPLE !!!
Audio.....: English
Subtitles.: English .srt, Polish .txt
Format                           : AVI
Format/Info                      : Audio Video Interleave
File size                        : 701 MiB
Duration                         : 1h 42mn
Overall bit rate                 : 958 Kbps
Writing application              : VirtualDubMod 1.5.4.1 (build 2178/release)
Writing library                  : VirtualDubMod build 2178/release
Video
ID                               : 0
Format                           : MPEG-4 Visual
Format profile                   : Advanced Simple@L5
Format settings, BVOP            : Yes
Format settings, QPel            : No
Format settings, GMC             : No warppoints
Format settings, Matrix          : Default (H.263)
Muxing mode                      : Packed bitstream
Codec ID                         : DX50
Codec ID/Hint                    : DivX 5
Duration                         : 1h 42mn
Bit rate                         : 836 Kbps
Width                            : 608 pixels
Height                           : 336 pixels
Display aspect ratio             : 16:9
Frame rate                       : 23.976 fps
Color space                      : YUV
Chroma subsampling               : 4:2:0
Bit depth                        : 8 bits
Scan type                        : Progressive
Bits/(Pixel*Frame)               : 0.171
Stream size                      : 612 MiB (87%)
Writing library                  : XviD 1.2.1 (UTC 2008-12-04)
Audio
ID                               : 1
Format                           : MPEG Audio
Format version                   : Version 1
Format profile                   : Layer 3
Mode                             : Joint stereo
Mode extension                   : MS Stereo
Codec ID                         : 55
Codec ID/Hint                    : MP3
Duration                         : 1h 42mn
Bit rate mode                    : Constant
Bit rate                         : 112 Kbps
Channel(s)                       : 2 channels
Sampling rate                    : 44.1 KHz
Video delay                      : 26ms
Stream size                      : 82.0 MiB (12%)
Alignment                        : Split accross interleaves
Interleave, duration             : 42 ms (1.00 video frame)
Interleave, preload duration     : 500 ms
Writing library                  : LAME3.92

Screen : 
http://imageshack.us/m/585/4200/grownups2010s1.jpg 
http://imageshack.us/m/834/6623/grownups2010s2.jpg 
http://imageshack.us/m/33/872/grownups2010s3.jpg 
http://imageshack.us/m/222/2153/grownups2010s4.jpg 
http://imageshack.us/m/30/8941/grownups2010s5.jpg